<svg version="1.1" viewBox="0.0 0.0 566.9291338582677 566.9291338582677" fill="none" stroke="none" stroke-linecap="square" stroke-miterlimit="10" xmlns:xlink="http://www.w3.org/1999/xlink" xmlns="http://www.w3.org/2000/svg"><clipPath id="p.0"><path d="m0 0l566.92914 0l0 566.92914l-566.92914 0l0 -566.92914z" clip-rule="nonzero"/></clipPath><g clip-path="url(#p.0)"><path fill="#000000" fill-opacity="0.0" d="m0 0l566.92914 0l0 566.92914l-566.92914 0z" fill-rule="evenodd"/><defs><linearGradient id="p.1" gradientUnits="userSpaceOnUse" gradientTransform="matrix(22.58334217439692 0.0 0.0 22.58334217439692 0.0 0.0)" spreadMethod="pad" x1="1.2619083646111855" y1="1.2579610299926982" x2="1.25730921301366" y2="23.841302736075498"><stop offset="0.0" stop-color="#bfbfbf"/><stop offset="1.4E-45" stop-color="#999999"/><stop offset="2.8E-45" stop-color="#00345f"/><stop offset="1.0" stop-color="#005296"/></linearGradient></defs><path fill="url(#p.1)" d="m191.02289 43.764515l0 0c20.334915 -20.33492 53.30513 -20.335703 73.64102 -0.0017433167l258.51474 258.49023c9.765625 9.764709 15.252075 23.008667 15.25238 36.81839c3.6621094E-4 13.809723 -5.4854736 27.053955 -15.250671 36.819122l-147.27411 147.27411c-20.33493 20.3349 -53.305115 20.335693 -73.64102 0.0017700195l-258.5147 -258.49023c-20.335888 -20.333954 -20.33667 -53.302597 -0.0017471313 -73.63751z" fill-rule="evenodd"/><path stroke="#ff9900" stroke-width="4.0" stroke-linejoin="round" stroke-linecap="butt" d="m191.02289 43.764515l0 0c20.334915 -20.33492 53.30513 -20.335703 73.64102 -0.0017433167l258.51474 258.49023c9.765625 9.764709 15.252075 23.008667 15.25238 36.81839c3.6621094E-4 13.809723 -5.4854736 27.053955 -15.250671 36.819122l-147.27411 147.27411c-20.33493 20.3349 -53.305115 20.335693 -73.64102 0.0017700195l-258.5147 -258.49023c-20.335888 -20.333954 -20.33667 -53.302597 -0.0017471313 -73.63751z" fill-rule="evenodd"/><path fill="#000000" fill-opacity="0.0" d="m246.49536 187.3858l204.47244 204.59842l-61.95276 61.95276l-204.47244 -204.59842z" fill-rule="evenodd"/><path fill="#ffffff" d="m205.83012 252.8044l51.83757 -37.62915l14.888855 14.8980255q4.4732666 4.4760437 5.809204 9.261002q1.3469849 4.7739105 -0.3991089 9.215836q-1.7350159 4.4529877 -6.5740967 7.9441223q-4.783783 3.4358826 -10.241058 4.230652q-5.45726 0.7947998 -10.75946 -1.0845642q-5.291153 -1.8683167 -9.819656 -6.3996124l-7.2345734 -7.2390137l-19.853394 14.461716l-7.6542816 -7.659012zm35.539627 -12.624954l7.2345734 7.239029q3.2362213 3.2382202 7.312454 3.5814056q4.076233 0.34318542 7.7552185 -2.230957q3.6679688 -2.695694 3.8452759 -6.187546q0.19937134 -3.4918518 -2.9926758 -6.6858673l-7.2235107 -7.2279663l-15.931335 11.511902zm-1.3592987 46.826355l63.11467 -26.345123l9.863312 9.869385l-40.516327 48.957397l-7.5880127 -7.592682l10.10965 -11.590149l-11.884552 -11.891907l-15.013702 6.6831055l-8.085037 -8.090027zm31.671677 -2.50354l9.123291 9.128906l11.214508 -12.805511q2.8284912 -3.1820374 5.0934753 -5.756378q2.2650146 -2.5743713 3.369873 -3.6792297q-1.4693604 0.7401428 -4.7173767 2.330902q-3.2480164 1.5907288 -7.291443 3.4244385l-16.792328 7.3568726zm9.246185 43.446625l51.848633 -37.618103l7.6542664 7.6589966l-43.57361 31.685394l18.931366 18.943024l-8.20874 5.9990234l-26.651917 -26.668335zm44.96039 44.988068l43.628845 -31.608032l-11.763062 -11.770325l8.274994 -5.9548035l31.125214 31.144379l-8.286072 5.943756l-11.696777 -11.70401l-43.56259 31.674347l-7.7205505 -7.7253113zm39.890472 41.130768q-4.2965393 -4.2991943 -5.5662537 -8.7968445q-1.2475891 -4.49765 0.4984436 -8.696472q1.7460632 -4.198822 6.4083557 -7.623657l22.549133 -16.428253q4.7175293 -3.3695984 9.8654785 -4.1644287q5.147949 -0.7948303 10.162933 0.973999q5.0260315 1.7798462 9.322601 6.079071q4.3407288 4.3434143 5.5993958 8.852081q1.2586365 4.5086975 -0.48739624 8.70752q-1.7460632 4.1988525 -6.397278 7.502136l-22.626495 16.48349q-4.651245 3.435913 -9.832336 4.197571q-5.170044 0.7727356 -10.173981 -0.98501587q-4.981842 -1.757782 -9.322601 -6.1011963zm7.8441467 -5.6343994q3.0594788 3.0613708 6.6386414 3.2829285q3.5901794 0.21051025 7.191864 -2.4188843l22.549133 -16.428253q3.7342224 -2.629364 4.0440063 -5.6349792q0.30978394 -3.0056458 -2.8160095 -6.1333313q-3.1147156 -3.1166382 -6.649658 -3.3381958q-3.5239258 -0.21051025 -7.1918945 2.485199l-22.615417 16.361938q-3.601654 2.6293945 -3.94458 5.668152q-0.33187866 3.02771 2.7939148 6.155426z" fill-rule="nonzero"/><path fill="#000000" fill-opacity="0.0" d="m120.11896 237.578l0 0c0 -30.9599 12.298767 -60.65178 34.190735 -82.54373c21.891968 -21.891968 51.58383 -34.190742 82.54373 -34.190742l0 116.734474z" fill-rule="evenodd"/><path fill="#000000" fill-opacity="0.0" d="m120.11896 237.578l0 0c0 -30.9599 12.298767 -60.65178 34.190735 -82.54373c21.891968 -21.891968 51.58383 -34.190742 82.54373 -34.190742" fill-rule="evenodd"/><path stroke="#ff9900" stroke-width="12.0" stroke-linejoin="round" stroke-linecap="butt" d="m120.11896 237.578l0 0c0 -30.9599 12.298767 -60.65178 34.190735 -82.54373c21.891968 -21.891968 51.58383 -34.190742 82.54373 -34.190742" fill-rule="evenodd"/><path fill="#000000" fill-opacity="0.0" d="m150.76231 237.5764l0 0c0 -22.832306 9.070099 -44.729477 25.214981 -60.87436c16.144882 -16.144882 38.042053 -25.214996 60.874374 -25.214996l0 86.089355z" fill-rule="evenodd"/><path fill="#000000" fill-opacity="0.0" d="m150.76231 237.5764l0 0c0 -22.832306 9.070099 -44.729477 25.214981 -60.87436c16.144882 -16.144882 38.042053 -25.214996 60.874374 -25.214996" fill-rule="evenodd"/><path stroke="#ff9900" stroke-width="12.0" stroke-linejoin="round" stroke-linecap="butt" d="m150.76231 237.5764l0 0c0 -22.832306 9.070099 -44.729477 25.214981 -60.87436c16.144882 -16.144882 38.042053 -25.214996 60.874374 -25.214996" fill-rule="evenodd"/><path fill="#000000" fill-opacity="0.0" d="m180.5259 237.5764l0 0c0 -14.938522 5.9342957 -29.265198 16.497437 -39.82834c10.563126 -10.563126 24.889816 -16.497437 39.82834 -16.497437l0 56.325775z" fill-rule="evenodd"/><path fill="#000000" fill-opacity="0.0" d="m180.5259 237.5764l0 0c0 -14.938522 5.9342957 -29.265198 16.497437 -39.82834c10.563126 -10.563126 24.889816 -16.497437 39.82834 -16.497437" fill-rule="evenodd"/><path stroke="#ff9900" stroke-width="12.0" stroke-linejoin="round" stroke-linecap="butt" d="m180.5259 237.5764l0 0c0 -14.938522 5.9342957 -29.265198 16.497437 -39.82834c10.563126 -10.563126 24.889816 -16.497437 39.82834 -16.497437" fill-rule="evenodd"/></g></svg>